<svg width="300" height="303" viewBox="0 0 300 303" fill="none" xmlns="http://www.w3.org/2000/svg">
<path d="M126 302.2C123.7 302.9 120.3 302.4 118.3 301L13.2998 229.4C11.2998 228.1 9.59983 225 9.39983 222.7L-0.000169314 95.9999C-0.200169 93.5999 1.09983 90.3999 2.79983 88.7999L95.9998 2.39993C97.6998 0.799927 101.1 -0.200073 103.4 0.0999269L229 18.9999C231.3 19.3999 234.2 21.2999 235.4 23.3999L298.9 133.5C300.1 135.5 300.3 139 299.5 141.2L253.1 259.5C252.2 261.7 249.7 264.1 247.4 264.8L126 302.2ZM189.4 199.5C191.7 198.8 194.2 196.4 195.1 194.2L215 143.4C215.9 141.2 215.6 137.7 214.4 135.7L187.1 88.3999C185.9 86.3999 183 84.3999 180.7 83.9999L126.8 75.9999C124.5 75.5999 121.1 76.6999 119.4 78.2999L79.3998 115.4C77.6998 117 76.3998 120.3 76.5998 122.6L80.6998 177C80.8998 179.4 82.5998 182.4 84.5998 183.7L129.7 214.5C131.7 215.8 135.1 216.4 137.4 215.7L189.4 199.5Z" fill="white"/>
</svg>
